<?xml version="1.0" encoding="UTF-8"?>
<!-- Generator: Adobe Illustrator 27.1.1, SVG Export Plug-In . SVG Version: 6.00 Build 0)  -->
<svg xmlns="http://www.w3.org/2000/svg" xmlns:xlink="http://www.w3.org/1999/xlink" version="1.1" id="Layer_1" x="0px" y="0px" viewBox="0 0 372 100" style="enable-background:new 0 0 372 100;" xml:space="preserve">
<style type="text/css">
	.st0{fill:#757575;}
	.st1{fill:#0FBACE;}
	.st2{fill:#FC4629;}
	.st3{fill:#FCC53A;}
</style>
<g>
	<g>
		<path class="st0" d="M120.9,98.54L110.74,83.4v15.14H99.79V63.62h10.95v14.7l10.01-14.7h12.38l-12.03,16.72l12.82,18.2H120.9z"></path>
		<path class="st0" d="M152.31,71.98c1.61-0.97,3.29-1.45,5.03-1.45v11.69h-3.11c-2.07,0-3.59,0.36-4.56,1.08    c-0.97,0.72-1.46,2.01-1.46,3.85v11.39h-10.95V70.73h10.95v5.13C149.33,74.24,150.7,72.95,152.31,71.98z"></path>
		<path class="st0" d="M160.57,77.01c1-2.15,2.38-3.8,4.12-4.93c1.74-1.13,3.7-1.7,5.87-1.7c1.81,0,3.37,0.37,4.69,1.11    c1.31,0.74,2.32,1.75,3.01,3.03v-3.8h10.9v27.81h-10.9v-3.8c-0.69,1.28-1.69,2.29-3.01,3.03c-1.32,0.74-2.88,1.11-4.69,1.11    c-2.17,0-4.13-0.57-5.87-1.7c-1.74-1.13-3.12-2.78-4.12-4.93c-1-2.15-1.5-4.69-1.5-7.62C159.07,81.71,159.57,79.17,160.57,77.01z     M177.11,81.18c-0.76-0.82-1.73-1.23-2.91-1.23s-2.15,0.41-2.91,1.23c-0.76,0.82-1.13,1.97-1.13,3.45s0.38,2.63,1.13,3.45    c0.76,0.82,1.73,1.23,2.91,1.23s2.15-0.41,2.91-1.23c0.76-0.82,1.13-1.97,1.13-3.45S177.87,82,177.11,81.18z"></path>
		<path class="st0" d="M209.12,68.65c-0.82,0-1.45,0.16-1.87,0.47c-0.43,0.31-0.72,0.85-0.89,1.6h3.99v9.12h-4.09v18.69h-10.95    V79.85h-2.96v-9.12h2.96c0.07-3.62,1.21-6.42,3.43-8.41c2.22-1.99,5.33-2.98,9.34-2.98c0.46,0,1.22,0.03,2.27,0.1v9.32    C209.76,68.69,209.35,68.65,209.12,68.65z"></path>
		<path class="st0" d="M230.87,89.22v9.32h-4.14c-7.63,0-11.44-3.8-11.44-11.39v-7.3h-3.45v-9.12h3.45v-6.71h10.95v6.71h4.54v9.12    h-4.54v7.5c0,0.66,0.16,1.13,0.47,1.43c0.31,0.3,0.83,0.44,1.55,0.44H230.87z"></path>
		<path class="st1" d="M277.52,70.73l-6.61,27.81h-12.33l-3.35-15.68l-3.55,15.68h-12.33l-6.56-27.81h10.85l2.32,16.92l3.6-16.92    h11.69l3.8,17.11l2.37-17.11H277.52z"></path>
		<path class="st1" d="M306.86,86.56h-17.61c0.16,2.4,1.17,3.6,3.01,3.6c1.18,0,2.04-0.54,2.56-1.63h11.59    c-0.39,1.97-1.22,3.74-2.49,5.3c-1.27,1.56-2.86,2.79-4.78,3.7c-1.92,0.9-4.04,1.36-6.34,1.36c-2.76,0-5.22-0.57-7.37-1.73    c-2.15-1.15-3.83-2.8-5.03-4.96s-1.8-4.68-1.8-7.57c0-2.89,0.6-5.42,1.8-7.57s2.88-3.8,5.03-4.96c2.15-1.15,4.61-1.73,7.37-1.73    s5.22,0.57,7.37,1.7c2.15,1.13,3.83,2.75,5.03,4.86c1.2,2.1,1.8,4.59,1.8,7.45C307.01,85.14,306.96,85.87,306.86,86.56z     M295.92,81.77c0-0.92-0.3-1.62-0.89-2.1c-0.59-0.48-1.33-0.71-2.22-0.71c-1.94,0-3.08,0.94-3.4,2.81H295.92z"></path>
		<path class="st1" d="M325.75,71.98c1.61-0.97,3.29-1.45,5.03-1.45v11.69h-3.11c-2.07,0-3.59,0.36-4.56,1.08    c-0.97,0.72-1.45,2.01-1.45,3.85v11.39h-10.95V70.73h10.95v5.13C322.77,74.24,324.14,72.95,325.75,71.98z"></path>
		<path class="st1" d="M355.09,98.54L344.93,83.4v15.14h-10.95V63.62h10.95v14.7l10.01-14.7h12.38l-12.03,16.72l12.82,18.2H355.09z"></path>
	</g>
</g>
<g>
	<path class="st2" d="M70.24,74.56L70.24,74.56L70.24,74.56c-0.93-0.29-1.91-0.47-2.93-0.53l-15.85-2.88l3.06,17.32l0,0   c1.04,5.72,6.04,10.07,12.07,10.07c6.77,0,12.27-5.49,12.27-12.27C78.85,80.77,75.23,76.12,70.24,74.56z"></path>
	<path class="st1" d="M76.63,24.47c-5.92-5.92-15.6-5.92-21.52,0L9.25,70.33c-5.92,5.92-5.92,15.6,0,21.52s15.6,5.92,21.52,0   l45.86-45.86C82.54,40.07,82.54,30.39,76.63,24.47z"></path>
	<path class="st3" d="M34.7,44.89v-29.3C34.7,7.56,28.13,1,20.11,1h-1.25C10.83,1,4.27,7.56,4.27,15.59V81.7   c0,8.02,6.56,14.59,14.59,14.59h1.25c6.78,0.01,10.66-4.44,10.66-4.44l20.7-20.7C51.46,71.15,34.7,61.23,34.7,44.89z"></path>
</g>
</svg>
